<mxfile host="app.diagrams.net" modified="2023-10-05T11:06:18.639Z" agent="Mozilla/5.0 (Macintosh; Intel Mac OS X 10_15_7) AppleWebKit/537.36 (KHTML, like Gecko) Chrome/114.0.0.0 YaBrowser/23.7.0.2592 Yowser/2.5 Safari/537.36" etag="N-jTVgDs2W3dJUjHZ5OR" version="22.0.2" type="google">
  <diagram name="Страница — 1" id="r-74dag2j848HP66kEdz">
    <mxGraphModel grid="1" page="1" gridSize="10" guides="1" tooltips="1" connect="1" arrows="1" fold="1" pageScale="1" pageWidth="827" pageHeight="1169" math="0" shadow="0">
      <root>
        <mxCell id="0" />
        <mxCell id="1" parent="0" />
        <mxCell id="-jGCXitZd1qScIlEQwrW-18" style="edgeStyle=orthogonalEdgeStyle;rounded=0;orthogonalLoop=1;jettySize=auto;html=1;exitX=0.5;exitY=1;exitDx=0;exitDy=0;entryX=0.5;entryY=0;entryDx=0;entryDy=0;" edge="1" parent="1" source="h2VDmH4cyIxao1wa2fu7-1" target="-jGCXitZd1qScIlEQwrW-1">
          <mxGeometry relative="1" as="geometry" />
        </mxCell>
        <mxCell id="h2VDmH4cyIxao1wa2fu7-1" value="Вход" style="ellipse;whiteSpace=wrap;html=1;aspect=fixed;" vertex="1" parent="1">
          <mxGeometry x="360" y="30" width="80" height="80" as="geometry" />
        </mxCell>
        <mxCell id="-jGCXitZd1qScIlEQwrW-19" style="edgeStyle=orthogonalEdgeStyle;rounded=0;orthogonalLoop=1;jettySize=auto;html=1;exitX=0.5;exitY=1;exitDx=0;exitDy=0;entryX=0.5;entryY=0;entryDx=0;entryDy=0;" edge="1" parent="1" source="-jGCXitZd1qScIlEQwrW-1" target="-jGCXitZd1qScIlEQwrW-3">
          <mxGeometry relative="1" as="geometry" />
        </mxCell>
        <mxCell id="-jGCXitZd1qScIlEQwrW-1" value="Режим ожидания" style="rounded=0;whiteSpace=wrap;html=1;" vertex="1" parent="1">
          <mxGeometry x="340" y="140" width="120" height="50" as="geometry" />
        </mxCell>
        <mxCell id="-jGCXitZd1qScIlEQwrW-2" value="Получен сигнал тревоги" style="text;html=1;strokeColor=none;fillColor=none;align=center;verticalAlign=middle;whiteSpace=wrap;rounded=0;" vertex="1" parent="1">
          <mxGeometry x="370" y="240" width="60" height="30" as="geometry" />
        </mxCell>
        <mxCell id="-jGCXitZd1qScIlEQwrW-20" style="edgeStyle=orthogonalEdgeStyle;rounded=0;orthogonalLoop=1;jettySize=auto;html=1;exitX=0.5;exitY=1;exitDx=0;exitDy=0;entryX=0.5;entryY=0;entryDx=0;entryDy=0;" edge="1" parent="1" source="-jGCXitZd1qScIlEQwrW-3" target="-jGCXitZd1qScIlEQwrW-5">
          <mxGeometry relative="1" as="geometry" />
        </mxCell>
        <mxCell id="-jGCXitZd1qScIlEQwrW-27" style="edgeStyle=orthogonalEdgeStyle;rounded=0;orthogonalLoop=1;jettySize=auto;html=1;exitX=0.5;exitY=1;exitDx=0;exitDy=0;" edge="1" parent="1" source="-jGCXitZd1qScIlEQwrW-3" target="-jGCXitZd1qScIlEQwrW-6">
          <mxGeometry relative="1" as="geometry" />
        </mxCell>
        <mxCell id="-jGCXitZd1qScIlEQwrW-3" value="Проверка сигнала" style="rounded=0;whiteSpace=wrap;html=1;" vertex="1" parent="1">
          <mxGeometry x="340" y="300" width="120" height="60" as="geometry" />
        </mxCell>
        <mxCell id="-jGCXitZd1qScIlEQwrW-4" value="Сигнал подтвердился" style="text;html=1;strokeColor=none;fillColor=none;align=center;verticalAlign=middle;whiteSpace=wrap;rounded=0;" vertex="1" parent="1">
          <mxGeometry x="370" y="400" width="60" height="30" as="geometry" />
        </mxCell>
        <mxCell id="-jGCXitZd1qScIlEQwrW-21" style="edgeStyle=orthogonalEdgeStyle;rounded=0;orthogonalLoop=1;jettySize=auto;html=1;exitX=0.5;exitY=1;exitDx=0;exitDy=0;" edge="1" parent="1" source="-jGCXitZd1qScIlEQwrW-5" target="-jGCXitZd1qScIlEQwrW-10">
          <mxGeometry relative="1" as="geometry" />
        </mxCell>
        <mxCell id="-jGCXitZd1qScIlEQwrW-5" value="Отправка сообщений пользователям системы" style="rounded=0;whiteSpace=wrap;html=1;" vertex="1" parent="1">
          <mxGeometry x="340" y="470" width="120" height="60" as="geometry" />
        </mxCell>
        <mxCell id="-jGCXitZd1qScIlEQwrW-30" style="edgeStyle=orthogonalEdgeStyle;rounded=0;orthogonalLoop=1;jettySize=auto;html=1;entryX=0.5;entryY=0;entryDx=0;entryDy=0;" edge="1" parent="1" source="-jGCXitZd1qScIlEQwrW-6" target="-jGCXitZd1qScIlEQwrW-8">
          <mxGeometry relative="1" as="geometry">
            <Array as="points">
              <mxPoint x="600" y="460" />
              <mxPoint x="740" y="460" />
              <mxPoint x="740" y="950" />
              <mxPoint x="610" y="950" />
            </Array>
          </mxGeometry>
        </mxCell>
        <mxCell id="-jGCXitZd1qScIlEQwrW-6" value="Сигнал не подтвердился" style="text;html=1;strokeColor=none;fillColor=none;align=center;verticalAlign=middle;whiteSpace=wrap;rounded=0;" vertex="1" parent="1">
          <mxGeometry x="570" y="400" width="60" height="30" as="geometry" />
        </mxCell>
        <mxCell id="-jGCXitZd1qScIlEQwrW-8" value="Выход" style="ellipse;whiteSpace=wrap;html=1;aspect=fixed;" vertex="1" parent="1">
          <mxGeometry x="570" y="970" width="80" height="80" as="geometry" />
        </mxCell>
        <mxCell id="-jGCXitZd1qScIlEQwrW-9" value="Получен сигнал пользователем" style="text;html=1;strokeColor=none;fillColor=none;align=center;verticalAlign=middle;whiteSpace=wrap;rounded=0;" vertex="1" parent="1">
          <mxGeometry x="370" y="570" width="60" height="30" as="geometry" />
        </mxCell>
        <mxCell id="-jGCXitZd1qScIlEQwrW-22" style="edgeStyle=orthogonalEdgeStyle;rounded=0;orthogonalLoop=1;jettySize=auto;html=1;exitX=0.5;exitY=1;exitDx=0;exitDy=0;" edge="1" parent="1" source="-jGCXitZd1qScIlEQwrW-10" target="-jGCXitZd1qScIlEQwrW-13">
          <mxGeometry relative="1" as="geometry">
            <mxPoint x="400" y="750" as="targetPoint" />
          </mxGeometry>
        </mxCell>
        <mxCell id="-jGCXitZd1qScIlEQwrW-26" style="edgeStyle=orthogonalEdgeStyle;rounded=0;orthogonalLoop=1;jettySize=auto;html=1;exitX=0.5;exitY=1;exitDx=0;exitDy=0;" edge="1" parent="1" source="-jGCXitZd1qScIlEQwrW-10" target="-jGCXitZd1qScIlEQwrW-14">
          <mxGeometry relative="1" as="geometry" />
        </mxCell>
        <mxCell id="-jGCXitZd1qScIlEQwrW-10" value="Реакция пользователя" style="rounded=0;whiteSpace=wrap;html=1;" vertex="1" parent="1">
          <mxGeometry x="340" y="640" width="120" height="40" as="geometry" />
        </mxCell>
        <mxCell id="-jGCXitZd1qScIlEQwrW-11" value="Пожар присутствует" style="text;html=1;strokeColor=none;fillColor=none;align=center;verticalAlign=middle;whiteSpace=wrap;rounded=0;" vertex="1" parent="1">
          <mxGeometry x="370" y="710" width="60" height="30" as="geometry" />
        </mxCell>
        <mxCell id="-jGCXitZd1qScIlEQwrW-12" value="Пожар отсутствует" style="text;html=1;strokeColor=none;fillColor=none;align=center;verticalAlign=middle;whiteSpace=wrap;rounded=0;" vertex="1" parent="1">
          <mxGeometry x="570" y="710" width="60" height="30" as="geometry" />
        </mxCell>
        <mxCell id="-jGCXitZd1qScIlEQwrW-13" value="Вызов пожарных" style="rounded=0;whiteSpace=wrap;html=1;" vertex="1" parent="1">
          <mxGeometry x="340" y="770" width="120" height="40" as="geometry" />
        </mxCell>
        <mxCell id="-jGCXitZd1qScIlEQwrW-29" style="edgeStyle=orthogonalEdgeStyle;rounded=0;orthogonalLoop=1;jettySize=auto;html=1;entryX=0.5;entryY=0;entryDx=0;entryDy=0;" edge="1" parent="1" source="-jGCXitZd1qScIlEQwrW-14" target="-jGCXitZd1qScIlEQwrW-8">
          <mxGeometry relative="1" as="geometry">
            <mxPoint x="610" y="950" as="targetPoint" />
          </mxGeometry>
        </mxCell>
        <mxCell id="-jGCXitZd1qScIlEQwrW-14" value="Приём валерьянки" style="rounded=0;whiteSpace=wrap;html=1;" vertex="1" parent="1">
          <mxGeometry x="550" y="770" width="120" height="40" as="geometry" />
        </mxCell>
        <mxCell id="-jGCXitZd1qScIlEQwrW-28" style="edgeStyle=orthogonalEdgeStyle;rounded=0;orthogonalLoop=1;jettySize=auto;html=1;exitX=0.5;exitY=1;exitDx=0;exitDy=0;entryX=0.5;entryY=0;entryDx=0;entryDy=0;" edge="1" parent="1" source="-jGCXitZd1qScIlEQwrW-15" target="-jGCXitZd1qScIlEQwrW-8">
          <mxGeometry relative="1" as="geometry" />
        </mxCell>
        <mxCell id="-jGCXitZd1qScIlEQwrW-15" value="Тушение пожара" style="rounded=0;whiteSpace=wrap;html=1;" vertex="1" parent="1">
          <mxGeometry x="350" y="880" width="120" height="40" as="geometry" />
        </mxCell>
        <mxCell id="-jGCXitZd1qScIlEQwrW-16" value="Приезд пожарных" style="text;html=1;strokeColor=none;fillColor=none;align=center;verticalAlign=middle;whiteSpace=wrap;rounded=0;" vertex="1" parent="1">
          <mxGeometry x="380" y="830" width="60" height="30" as="geometry" />
        </mxCell>
        <mxCell id="-jGCXitZd1qScIlEQwrW-25" style="edgeStyle=orthogonalEdgeStyle;rounded=0;orthogonalLoop=1;jettySize=auto;html=1;entryX=0.417;entryY=0;entryDx=0;entryDy=0;entryPerimeter=0;" edge="1" parent="1" source="-jGCXitZd1qScIlEQwrW-13" target="-jGCXitZd1qScIlEQwrW-15">
          <mxGeometry relative="1" as="geometry" />
        </mxCell>
      </root>
    </mxGraphModel>
  </diagram>
</mxfile>
